<svg data-v-66705354="" version="1.0" xmlns="http://www.w3.org/2000/svg" xmlns:xlink="http://www.w3.org/1999/xlink"
  width="100%" height="100%" viewBox="0 0 340.000000 250.000000" preserveAspectRatio="xMidYMid meet"
  color-interpolation-filters="sRGB" class="el-tooltip" style="margin: auto;">
  <rect data-v-66705354="" x="0" y="0" width="100%" height="100%" fill="#1f2532" fill-opacity="1" style="
  "></rect>
  <g data-v-66705354="" fill="#fff" class="bordersvg b-d1" transform="translate(107.78355407714844,83.96895599365234)">
    <path fill-opacity="0" stroke="#fff" stroke-width="3"
      d="M 72.06208419799805 5.98591423034668 A 41.03104209899902 41.03104209899902 0 1 0 72.06208419799805 76.07616996765137">
    </path>
    <g transform="translate(10,5.98591423034668)">
      <g>
        <rect stroke-width="2" class="i-icon-bg" x="0" y="0" width="124.1241683959961" height="70.09025573730469"
          fill-opacity="0"></rect>
      </g>
      <g transform="translate(10,3)">
        <g fill-rule="" class="tp-name" transform="translate(0,0)">
          <g>
            <path
              d="M8.14-0.17L10.56-13.31L6.16-13.26Q5.22-13.26 4.54-13.94Q3.85-14.63 3.85-15.56L3.85-15.56Q3.85-16.55 4.51-17.27Q5.17-17.98 6.11-17.98L6.11-17.98L11.44-18.04L14.30-33.38L14.30-33.44L7.92-33.33Q6.93-33.27 6.24-33.96Q5.55-34.65 5.50-35.64L5.50-35.64Q5.50-36.58 6.19-37.29Q6.88-38.01 7.81-38.01L7.81-38.01L47.08-38.72Q48.02-38.72 48.73-38.03Q49.45-37.34 49.45-36.41L49.45-36.41Q49.45-35.42 48.79-34.73Q48.13-34.05 47.13-33.99L47.13-33.99L42.35-33.88Q42.63-33.16 42.63-32.12L42.63-32.12L42.63-18.54L48.79-18.64Q49.72-18.70 50.41-18.01Q51.09-17.32 51.09-16.34L51.09-16.34Q51.15-15.40 50.46-14.71Q49.77-14.03 48.84-14.03L48.84-14.03L42.63-13.92L42.63 1.98Q42.63 3.14 42.21 4.13Q41.80 5.12 41.06 5.86Q40.31 6.60 39.33 7.04Q38.34 7.48 37.23 7.48L37.23 7.48Q34.92 7.48 33.33 5.88Q31.73 4.29 31.73 1.98L31.73 1.98L31.73-13.70L21.73-13.53L18.92 1.81Q18.70 2.92 18.09 3.82Q17.49 4.73 16.64 5.33Q15.79 5.94 14.71 6.19Q13.64 6.43 12.54 6.21L12.54 6.21Q11.44 6.00 10.53 5.39Q9.63 4.79 9.05 3.93Q8.47 3.08 8.22 2.01Q7.97 0.94 8.14-0.17L8.14-0.17ZM24.97-31.41L22.61-18.21L31.73-18.37L31.73-32.12Q31.73-33.05 31.96-33.77L31.96-33.77L24.91-33.60Q25.19-32.40 24.97-31.41L24.97-31.41ZM102.25-17.77L102.25 1.49Q102.25 1.76 102.52 1.76L102.52 1.76L102.74 1.76Q103.13 1.76 103.26 1.04Q103.40 0.33 103.65-0.47Q103.90-1.26 104.39-1.84Q104.88-2.42 105.88-2.15L105.88-2.15Q106.92-1.87 107.47-0.47Q108.02 0.94 107.97 2.53Q107.91 4.13 107.14 5.42Q106.37 6.71 104.83 6.71L104.83 6.71L97.95 6.71Q96.85 6.71 95.89 6.30Q94.93 5.88 94.24 5.20Q93.56 4.51 93.14 3.58Q92.73 2.64 92.73 1.54L92.73 1.54L92.73-16.50Q92.73-17.38 92.23-18.15L92.23-18.15Q91.80-18.81 91.03-18.81L91.03-18.81L88.77-18.75Q88.11-18.75 87.72-18.09Q87.34-17.43 87.23-16.50L87.23-16.50L86.41 2.92Q86.24 4.73 85.39 5.86Q84.53 6.99 83.33 7.45Q82.11 7.92 80.77 7.78Q79.42 7.65 78.29 6.96Q77.16 6.27 76.50 5.03Q75.84 3.79 76.01 2.09L76.01 2.09L77.33-18.26Q77.61-20.46 79.20-21.92Q80.80-23.38 83.00-23.38L83.00-23.38L96.47-23.54Q98.89-23.54 100.54-21.84L100.54-21.84Q102.25-20.30 102.25-17.77L102.25-17.77ZM60.72-25.68L60.72-32.17Q60.72-34.48 62.31-36.05Q63.91-37.62 66.22-37.62L66.22-37.62Q68.53-37.62 70.13-36.05Q71.72-34.48 71.72-32.17L71.72-32.17L71.72-26.02L72.93-26.02Q73.92-26.07 74.64-25.38Q75.35-24.70 75.35-23.76L75.35-23.76Q75.41-22.82 74.72-22.11Q74.03-21.39 73.09-21.34L73.09-21.34L71.72-21.29L71.72-7.87L71.72-7.70L72.71-7.87Q73.64-8.09 74.44-7.51Q75.24-6.93 75.41-6.00L75.41-6.00Q75.63-5.00 75.05-4.21Q74.47-3.41 73.53-3.25L73.53-3.25L59.73-0.94Q58.74-0.77 57.97-1.32Q57.20-1.87 57.03-2.86L57.03-2.86Q56.81-3.79 57.39-4.59Q57.97-5.39 58.91-5.55L58.91-5.55L61.05-5.94Q60.72-6.76 60.72-7.87L60.72-7.87L60.72-20.96L59.45-20.96Q58.52-20.90 57.80-21.59Q57.09-22.27 57.09-23.21L57.09-23.21Q57.03-24.20 57.72-24.91Q58.41-25.63 59.34-25.63L59.34-25.63L60.72-25.68ZM84.92-32.62L84.92-35.64Q84.92-37.29 85.77-38.42Q86.63-39.55 87.89-40.12Q89.16-40.70 90.67-40.70Q92.18-40.70 93.44-40.15Q94.71-39.60 95.56-38.47Q96.41-37.34 96.41-35.64L96.41-35.64L96.41-32.95L104.78-33.16Q105.77-33.16 106.48-32.51Q107.19-31.84 107.19-30.86L107.19-30.86Q107.25-29.86 106.56-29.18Q105.88-28.49 104.94-28.43L104.94-28.43L76.56-27.77Q75.57-27.72 74.88-28.41Q74.19-29.09 74.14-30.09L74.14-30.09Q74.14-31.02 74.80-31.71Q75.46-32.40 76.45-32.40L76.45-32.40L84.92-32.62Z"
              transform="translate(-3.85, 40.7)"></path>
          </g>
        </g>
        <g fill-rule="" hollow-target="custom" class="tp-slogan"
          transform="translate(43.41208362579346,55.51213073730469)">
          <g>
            <path
              d="M3.42-4.31L2.06-3.05L2.06 0L0.89 0L0.89-8.58L2.06-8.58L2.06-4.41L6.23-8.58L7.88-8.58L4.27-5.11L7.97 0L6.42 0L3.42-4.31ZM14.53 0L13.69-2.48L10.22-2.48L9.33 0L8.16 0L11.39-8.58L12.70-8.58L15.80 0L14.53 0ZM11.95-7.31L10.59-3.52L13.27-3.52L12-7.31L11.95-7.31ZM17.02-8.58L18.19-8.58L18.19 0L17.02 0L17.02-8.58Z"
              transform="translate(-0.890625, 8.578125)"></path>
          </g>
        </g>
      </g>
    </g>
  </g>
</svg>